<svg width="821" height="821" viewBox="0 0 821 821" fill="none" xmlns="http://www.w3.org/2000/svg">
<g filter="url(#filter0_ddddii)">
<path fill-rule="evenodd" clip-rule="evenodd" d="M409 674.192C555.412 674.192 674.143 555.439 674.143 408.927C674.143 362.009 661.979 317.931 640.563 279.755C645.007 274 649.45 268.317 653.82 262.853C679.315 305.546 694.102 355.452 694.102 408.927C694.102 566.367 566.411 694.082 409 694.082C251.517 694.082 123.898 566.367 123.898 408.927C123.898 251.487 251.517 123.773 409 123.773C502.674 123.773 585.786 168.943 637.722 238.811C632.769 243.255 627.889 247.772 623.009 252.435C574.787 186.501 496.847 143.735 409 143.735C262.588 143.735 143.857 262.489 143.857 408.927C143.93 555.439 262.661 674.192 409 674.192ZM409 794.694C621.916 794.694 794.623 621.955 794.623 409C794.623 326.018 768.4 249.156 723.821 186.209C725.861 184.242 727.9 182.348 730.013 180.527C775.976 244.93 803 323.832 803 409C803 626.545 626.505 803 409 803C191.495 803 15 626.545 15 409C15 191.455 191.495 15 409 15C537.638 15 651.854 76.7082 723.748 172.075C721.49 173.605 719.159 175.135 716.828 176.665C646.464 83.4837 534.725 23.3055 409 23.3055C196.084 23.3055 23.3767 196.045 23.3767 409C23.3767 621.955 196.084 794.694 409 794.694ZM409 773.494C610.261 773.494 773.426 610.226 773.426 409C773.426 331.774 749.388 260.157 708.452 201.217C706.121 203.476 703.79 205.88 701.532 208.212C740.793 265.33 763.738 334.469 763.738 409C763.738 604.907 604.871 763.877 409 763.877C213.129 763.877 54.2615 604.98 54.2615 409C54.2615 213.093 213.129 54.196 409 54.196C524.381 54.196 626.869 109.347 691.625 194.66C694.175 192.766 696.797 190.872 699.419 188.905C632.842 101.187 527.586 44.5063 409 44.5063C207.739 44.5063 44.5737 207.774 44.5737 409C44.5737 610.226 207.812 773.494 409 773.494ZM409 747.266C595.766 747.266 747.203 595.8 747.203 409C747.203 339.278 726.079 274.437 689.877 220.67C686.745 224.021 683.686 227.591 680.408 231.161C713.988 282.232 733.509 343.358 733.509 409C733.509 588.223 588.19 733.569 409 733.569C229.737 733.569 84.418 588.223 84.418 409C84.418 229.704 229.737 84.4308 409 84.4308C514.693 84.4308 608.513 134.919 667.806 213.166C671.302 210.251 674.872 207.483 678.441 204.642C616.671 123.335 518.918 70.7341 409 70.7341C222.307 70.7341 70.7967 222.2 70.7967 409C70.7967 595.8 222.307 747.266 409 747.266ZM409 720.528C581.052 720.528 720.471 581.011 720.471 409C720.471 347.292 702.551 289.809 671.594 241.433C667.66 245.95 663.872 250.613 659.939 255.349C687.4 300.082 703.28 352.683 703.28 409C703.28 571.467 571.51 703.334 409 703.334C246.563 703.334 114.72 571.467 114.72 409C114.72 246.46 246.49 114.738 409 114.738C505.369 114.738 590.958 161.147 644.643 232.836C648.94 229.048 653.311 225.26 657.754 221.544C600.865 146.212 510.687 97.5447 409 97.5447C237.021 97.5447 97.5294 236.989 97.5294 409.073C97.5294 581.084 237.021 720.528 409 720.528ZM409 666.688C551.332 666.688 666.641 551.286 666.641 409C666.641 364.631 655.35 322.885 635.61 286.458C586.952 350.862 536.618 431.876 485.775 527.827L433.985 409C402.517 460.873 370.758 519.594 337.834 585.309L238.332 348.02L343.078 447.249C360.123 421.458 383.433 391.005 412.132 358.803L384.307 294.836L429.031 340.371C469.313 297.313 518.627 252.289 575.006 212.073C530.136 174.188 472.226 151.385 409 151.385C266.74 151.385 151.359 266.787 151.359 409.073C151.432 551.286 266.74 666.688 409 666.688ZM617.545 257.68C606.546 242.526 594.018 228.684 580.032 216.298C538.658 256.806 498.668 307.877 458.387 370.168L490.582 402.953C526.056 355.962 568.305 304.89 617.545 257.68Z" fill="url(#paint0_linear)"/>
</g>
<defs>
<filter id="filter0_ddddii" x="0" y="0" width="821" height="821" filterUnits="userSpaceOnUse" color-interpolation-filters="sRGB">
<feFlood flood-opacity="0" result="BackgroundImageFix"/>
<feColorMatrix in="SourceAlpha" type="matrix" values="0 0 0 0 0 0 0 0 0 0 0 0 0 0 0 0 0 0 127 0"/>
<feOffset dx="5" dy="5"/>
<feGaussianBlur stdDeviation="6.5"/>
<feColorMatrix type="matrix" values="0 0 0 0 0.494118 0 0 0 0 0.0117647 0 0 0 0 0.0901961 0 0 0 0.9 0"/>
<feBlend mode="normal" in2="BackgroundImageFix" result="effect1_dropShadow"/>
<feColorMatrix in="SourceAlpha" type="matrix" values="0 0 0 0 0 0 0 0 0 0 0 0 0 0 0 0 0 0 127 0"/>
<feOffset dx="-5" dy="-5"/>
<feGaussianBlur stdDeviation="5"/>
<feColorMatrix type="matrix" values="0 0 0 0 1 0 0 0 0 0.0196078 0 0 0 0 0.184314 0 0 0 0.9 0"/>
<feBlend mode="normal" in2="effect1_dropShadow" result="effect2_dropShadow"/>
<feColorMatrix in="SourceAlpha" type="matrix" values="0 0 0 0 0 0 0 0 0 0 0 0 0 0 0 0 0 0 127 0"/>
<feOffset dx="5" dy="-5"/>
<feGaussianBlur stdDeviation="5"/>
<feColorMatrix type="matrix" values="0 0 0 0 0.494118 0 0 0 0 0.0117647 0 0 0 0 0.0901961 0 0 0 0.2 0"/>
<feBlend mode="normal" in2="effect2_dropShadow" result="effect3_dropShadow"/>
<feColorMatrix in="SourceAlpha" type="matrix" values="0 0 0 0 0 0 0 0 0 0 0 0 0 0 0 0 0 0 127 0"/>
<feOffset dx="-5" dy="5"/>
<feGaussianBlur stdDeviation="5"/>
<feColorMatrix type="matrix" values="0 0 0 0 0.494118 0 0 0 0 0.0117647 0 0 0 0 0.0901961 0 0 0 0.2 0"/>
<feBlend mode="normal" in2="effect3_dropShadow" result="effect4_dropShadow"/>
<feBlend mode="normal" in="SourceGraphic" in2="effect4_dropShadow" result="shape"/>
<feColorMatrix in="SourceAlpha" type="matrix" values="0 0 0 0 0 0 0 0 0 0 0 0 0 0 0 0 0 0 127 0" result="hardAlpha"/>
<feOffset dx="-1" dy="-1"/>
<feGaussianBlur stdDeviation="1"/>
<feComposite in2="hardAlpha" operator="arithmetic" k2="-1" k3="1"/>
<feColorMatrix type="matrix" values="0 0 0 0 0.494118 0 0 0 0 0.0117647 0 0 0 0 0.0901961 0 0 0 0.5 0"/>
<feBlend mode="normal" in2="shape" result="effect5_innerShadow"/>
<feColorMatrix in="SourceAlpha" type="matrix" values="0 0 0 0 0 0 0 0 0 0 0 0 0 0 0 0 0 0 127 0" result="hardAlpha"/>
<feOffset dx="1" dy="1"/>
<feGaussianBlur stdDeviation="1"/>
<feComposite in2="hardAlpha" operator="arithmetic" k2="-1" k3="1"/>
<feColorMatrix type="matrix" values="0 0 0 0 1 0 0 0 0 0.0196078 0 0 0 0 0.184314 0 0 0 0.3 0"/>
<feBlend mode="normal" in2="effect5_innerShadow" result="effect6_innerShadow"/>
</filter>
<linearGradient id="paint0_linear" x1="15" y1="15" x2="803" y2="803" gradientUnits="userSpaceOnUse">
<stop stop-color="#B50421"/>
<stop offset="1" stop-color="#C90425"/>
</linearGradient>
</defs>
</svg>
