<svg width="376" height="376" viewBox="0 0 376 376" fill="none" xmlns="http://www.w3.org/2000/svg">
<g filter="url(#filter0_ddddii)">
<path fill-rule="evenodd" clip-rule="evenodd" d="M188 276.96C237.115 276.96 276.944 237.123 276.944 187.975C276.944 172.236 272.863 157.45 265.679 144.644C267.17 142.713 268.66 140.807 270.126 138.974C278.679 153.295 283.639 170.037 283.639 187.975C283.639 240.789 240.804 283.632 188 283.632C135.171 283.632 92.3608 240.789 92.3608 187.975C92.3608 135.161 135.171 92.3185 188 92.3185C219.424 92.3185 247.304 107.471 264.726 130.909C263.065 132.4 261.428 133.915 259.79 135.479C243.614 113.361 217.469 99.015 188 99.015C138.885 99.015 99.0561 138.852 99.0561 187.975C99.0805 237.123 138.91 276.96 188 276.96ZM188 317.383C259.424 317.383 317.36 259.437 317.36 188C317.36 160.163 308.563 134.379 293.609 113.263C294.293 112.603 294.977 111.968 295.686 111.357C311.104 132.962 320.17 159.43 320.17 188C320.17 260.977 260.963 320.169 188 320.169C115.037 320.169 55.8303 260.977 55.8303 188C55.8303 115.023 115.037 55.8301 188 55.8301C231.152 55.8301 269.467 76.5305 293.584 108.522C292.827 109.035 292.045 109.548 291.263 110.062C267.659 78.8033 230.175 58.6162 188 58.6162C116.576 58.6162 58.6403 116.563 58.6403 188C58.6403 259.437 116.576 317.383 188 317.383ZM188 310.271C255.514 310.271 310.249 255.502 310.249 188C310.249 162.094 302.185 138.07 288.453 118.298C287.671 119.055 286.889 119.862 286.132 120.644C299.302 139.805 306.999 162.998 306.999 188C306.999 253.718 253.706 307.045 188 307.045C122.294 307.045 69.0008 253.742 69.0008 188C69.0008 122.282 122.294 68.9786 188 68.9786C226.705 68.9786 261.085 87.4794 282.808 116.098C283.664 115.463 284.543 114.827 285.423 114.168C263.089 84.7422 227.78 65.7281 188 65.7281C120.486 65.7281 65.751 120.497 65.751 188C65.751 255.502 120.51 310.271 188 310.271ZM188 301.473C250.652 301.473 301.452 250.663 301.452 188C301.452 164.611 294.366 142.86 282.222 124.823C281.171 125.947 280.145 127.145 279.045 128.343C290.31 145.475 296.859 165.98 296.859 188C296.859 248.121 248.11 296.878 188 296.878C127.865 296.878 79.117 248.121 79.117 188C79.117 127.854 127.865 79.1211 188 79.1211C223.455 79.1211 254.928 96.0578 274.818 122.306C275.991 121.328 277.188 120.4 278.386 119.447C257.665 92.1719 224.873 74.5264 188 74.5264C125.373 74.5264 74.5476 125.336 74.5476 188C74.5476 250.663 125.373 301.473 188 301.473ZM188 292.504C245.716 292.504 292.485 245.702 292.485 188C292.485 167.299 286.474 148.016 276.089 131.789C274.769 133.304 273.499 134.868 272.179 136.457C281.391 151.462 286.718 169.108 286.718 188C286.718 242.5 242.515 286.736 188 286.736C133.51 286.736 89.282 242.5 89.282 188C89.282 133.475 133.485 89.288 188 89.288C220.328 89.288 249.039 104.856 267.048 128.905C268.489 127.634 269.955 126.363 271.446 125.117C252.362 99.8459 222.111 83.5202 188 83.5202C130.309 83.5202 83.5153 130.298 83.5153 188.024C83.5153 245.726 130.309 292.504 188 292.504ZM188 274.443C235.746 274.443 274.427 235.73 274.427 188C274.427 173.116 270.64 159.112 264.018 146.892C247.695 168.497 230.81 195.674 213.755 227.861L196.381 188C185.825 205.401 175.172 225.099 164.127 247.144L130.748 167.544L165.886 200.831C171.604 192.179 179.423 181.963 189.051 171.161L179.716 149.703L194.72 164.978C208.232 150.534 224.775 135.43 243.688 121.939C228.636 109.231 209.21 101.581 188 101.581C140.278 101.581 101.573 140.294 101.573 188.024C101.597 235.73 140.278 274.443 188 274.443ZM257.958 137.239C254.268 132.155 250.065 127.512 245.374 123.357C231.495 136.945 218.08 154.078 204.567 174.973L215.367 185.971C227.267 170.208 241.44 153.075 257.958 137.239Z" fill="url(#paint0_linear)"/>
</g>
<circle cx="188" cy="188" r="149.9" stroke="#ECECEC"/>
<circle cx="188" cy="188" r="168.13" stroke="#E3E3E3" stroke-opacity="0.62"/>
<circle cx="188" cy="188" r="187.5" stroke="#D6D6D6" stroke-opacity="0.35"/>
<defs>
<filter id="filter0_ddddii" x="40.8303" y="40.8301" width="297.339" height="297.339" filterUnits="userSpaceOnUse" color-interpolation-filters="sRGB">
<feFlood flood-opacity="0" result="BackgroundImageFix"/>
<feColorMatrix in="SourceAlpha" type="matrix" values="0 0 0 0 0 0 0 0 0 0 0 0 0 0 0 0 0 0 127 0"/>
<feOffset dx="5" dy="5"/>
<feGaussianBlur stdDeviation="6.5"/>
<feColorMatrix type="matrix" values="0 0 0 0 0.878431 0 0 0 0 0.878431 0 0 0 0 0.878431 0 0 0 0.9 0"/>
<feBlend mode="normal" in2="BackgroundImageFix" result="effect1_dropShadow"/>
<feColorMatrix in="SourceAlpha" type="matrix" values="0 0 0 0 0 0 0 0 0 0 0 0 0 0 0 0 0 0 127 0"/>
<feOffset dx="-5" dy="-5"/>
<feGaussianBlur stdDeviation="5"/>
<feColorMatrix type="matrix" values="0 0 0 0 1 0 0 0 0 1 0 0 0 0 1 0 0 0 0.9 0"/>
<feBlend mode="normal" in2="effect1_dropShadow" result="effect2_dropShadow"/>
<feColorMatrix in="SourceAlpha" type="matrix" values="0 0 0 0 0 0 0 0 0 0 0 0 0 0 0 0 0 0 127 0"/>
<feOffset dx="5" dy="-5"/>
<feGaussianBlur stdDeviation="5"/>
<feColorMatrix type="matrix" values="0 0 0 0 0.878431 0 0 0 0 0.878431 0 0 0 0 0.878431 0 0 0 0.2 0"/>
<feBlend mode="normal" in2="effect2_dropShadow" result="effect3_dropShadow"/>
<feColorMatrix in="SourceAlpha" type="matrix" values="0 0 0 0 0 0 0 0 0 0 0 0 0 0 0 0 0 0 127 0"/>
<feOffset dx="-5" dy="5"/>
<feGaussianBlur stdDeviation="5"/>
<feColorMatrix type="matrix" values="0 0 0 0 0.878431 0 0 0 0 0.878431 0 0 0 0 0.878431 0 0 0 0.2 0"/>
<feBlend mode="normal" in2="effect3_dropShadow" result="effect4_dropShadow"/>
<feBlend mode="normal" in="SourceGraphic" in2="effect4_dropShadow" result="shape"/>
<feColorMatrix in="SourceAlpha" type="matrix" values="0 0 0 0 0 0 0 0 0 0 0 0 0 0 0 0 0 0 127 0" result="hardAlpha"/>
<feOffset dx="-1" dy="-1"/>
<feGaussianBlur stdDeviation="1"/>
<feComposite in2="hardAlpha" operator="arithmetic" k2="-1" k3="1"/>
<feColorMatrix type="matrix" values="0 0 0 0 0.878431 0 0 0 0 0.878431 0 0 0 0 0.878431 0 0 0 0.5 0"/>
<feBlend mode="normal" in2="shape" result="effect5_innerShadow"/>
<feColorMatrix in="SourceAlpha" type="matrix" values="0 0 0 0 0 0 0 0 0 0 0 0 0 0 0 0 0 0 127 0" result="hardAlpha"/>
<feOffset dx="1" dy="1"/>
<feGaussianBlur stdDeviation="1"/>
<feComposite in2="hardAlpha" operator="arithmetic" k2="-1" k3="1"/>
<feColorMatrix type="matrix" values="0 0 0 0 1 0 0 0 0 1 0 0 0 0 1 0 0 0 0.3 0"/>
<feBlend mode="normal" in2="effect5_innerShadow" result="effect6_innerShadow"/>
</filter>
<linearGradient id="paint0_linear" x1="55.8303" y1="55.8301" x2="320.17" y2="320.169" gradientUnits="userSpaceOnUse">
<stop stop-color="#F6F6F6"/>
<stop offset="1" stop-color="white"/>
</linearGradient>
</defs>
</svg>
