<svg width="295" height="204" viewBox="0 0 295 204" fill="none" xmlns="http://www.w3.org/2000/svg">
<path opacity="0.1" d="M108.597 203.526C106.073 203.526 103.902 203.003 102.103 201.977L69.4377 183.282L38.8068 200.795C37.0073 201.822 34.8362 202.345 32.3325 202.345C29.8288 202.345 27.6577 201.822 25.8582 200.795L5.26162 189.016C2.60147 187.486 2.03422 185.548 2.03422 184.192C2.03422 182.836 2.60147 180.88 5.26162 179.369L33.9364 162.979L3.22737 145.428C0.586785 143.917 0.0195599 141.979 0 140.604C0 139.228 0.567225 137.291 3.22737 135.761L28.9095 121.076C30.6895 120.049 32.8802 119.526 35.3839 119.526C37.9071 119.526 40.0978 120.049 41.8778 121.076L74.5428 139.751L104.958 122.355C106.738 121.328 108.929 120.805 111.452 120.805C113.976 120.805 116.147 121.328 117.927 122.335L138.523 134.114C141.183 135.644 141.751 137.582 141.751 138.938C141.751 140.294 141.183 142.231 138.523 143.762L110.064 160.035L140.773 177.606C143.433 179.136 144 181.073 144 182.429C144 183.786 143.433 185.742 140.773 187.253L115.09 201.938C113.291 203.023 111.12 203.526 108.597 203.526Z" fill="black"/>
<path opacity="0.1" d="M185.356 111.526C182.847 111.526 180.672 111 178.869 109.968L158.234 98.1227C155.568 96.5836 155 94.6354 155 93.2717C155 91.9079 155.568 89.9403 158.234 88.4207L258.138 31.085C259.922 30.0524 262.116 29.5264 264.644 29.5264C267.172 29.5264 269.348 30.0524 271.131 31.0655L291.767 42.9105C294.432 44.4496 295 46.3979 295 47.7616C295 49.1254 294.432 51.0735 291.767 52.6126L191.862 109.948C190.059 111 187.864 111.526 185.356 111.526Z" fill="black"/>
<path d="M141.836 150.449C141.836 149.199 141.094 148.144 139.59 147.266L128.516 140.859L137.344 135.762C138.848 134.902 139.59 133.848 139.59 132.598V106.602C139.59 105.352 138.848 104.297 137.344 103.418L116.777 91.5429C115.293 90.6835 113.457 90.2539 111.289 90.2539C109.121 90.2539 107.285 90.6835 105.781 91.5429L74.4336 109.648L40.8398 90.2539C39.3555 89.3945 37.5195 88.9648 35.332 88.9648C33.164 88.9648 31.3281 89.3945 29.8437 90.2539L4.19921 105.059C2.6953 105.918 1.95312 106.973 1.95312 108.223V108.242V134.238C1.97266 135.488 2.69531 136.543 4.17969 137.402L15.2539 143.789L6.21092 149.004C4.72655 149.863 3.98436 150.918 3.98436 152.168H3.94532V178.164H3.98436V178.184C3.98436 179.434 4.7461 180.488 6.23047 181.348L26.7969 193.223C28.3008 194.082 30.1172 194.531 32.2851 194.531C34.4531 194.531 36.289 194.082 37.7734 193.242L69.3359 175.02L102.93 194.414C104.434 195.273 106.25 195.703 108.437 195.703C110.605 195.703 112.441 195.273 113.945 194.414L139.59 179.609C141.055 178.769 141.758 177.734 141.797 176.523H141.816V150.527H141.797C141.797 150.508 141.836 150.488 141.836 150.449Z" fill="#C32329"/>
<path opacity="0.25" d="M141.836 150.449C141.836 149.199 141.094 148.144 139.59 147.266L128.516 140.859L137.344 135.762C138.848 134.902 139.59 133.848 139.59 132.598V106.602C139.59 105.352 138.848 104.297 137.344 103.418L116.777 91.5429C115.293 90.6835 113.457 90.2539 111.289 90.2539C109.121 90.2539 107.285 90.6835 105.781 91.5429L74.4336 109.648L40.8398 90.2539C39.3555 89.3945 37.5195 88.9648 35.332 88.9648C33.164 88.9648 31.3281 89.3945 29.8437 90.2539L4.19921 105.059C2.6953 105.918 1.95312 106.973 1.95312 108.223V108.242V134.238C1.97266 135.488 2.69531 136.543 4.17969 137.402L15.2539 143.789L6.21092 149.004C4.72655 149.863 3.98436 150.918 3.98436 152.168H3.94532V178.164H3.98436V178.184C3.98436 179.434 4.7461 180.488 6.23047 181.348L26.7969 193.223C28.3008 194.082 30.1172 194.531 32.2851 194.531C34.4531 194.531 36.289 194.082 37.7734 193.242L69.3359 175.02L102.93 194.414C104.434 195.273 106.25 195.703 108.437 195.703C110.605 195.703 112.441 195.273 113.945 194.414L139.59 179.609C141.055 178.769 141.758 177.734 141.797 176.523H141.816V150.527H141.797C141.797 150.508 141.836 150.488 141.836 150.449Z" fill="black"/>
<path opacity="0.15" d="M101.074 142.344H131.074L128.535 140.879L137.363 135.781C138.867 134.922 139.609 133.867 139.609 132.617V106.621C139.609 105.371 138.867 104.316 137.363 103.437L132.305 100.508H101.094V142.344H101.074Z" fill="black"/>
<path opacity="0.15" d="M108.496 195.723C110.645 195.723 112.461 195.293 113.945 194.434L139.59 179.629C141.055 178.789 141.758 177.754 141.797 176.543H141.816V150.547H141.797C141.797 150.508 141.816 150.488 141.816 150.469C141.816 149.961 141.602 149.492 141.367 149.062H108.477V195.723H108.496Z" fill="black"/>
<path opacity="0.15" d="M4.19921 105.078C2.6953 105.938 1.95312 106.992 1.95312 108.242V108.262V134.258C1.97266 135.508 2.69531 136.563 4.17968 137.422L15.2539 143.809H45.7031V102.969H7.8125L4.19921 105.078Z" fill="black"/>
<path opacity="0.15" d="M32.4219 194.531C34.5313 194.512 36.3281 194.102 37.7734 193.262L69.336 175.039V149.043H32.4219V194.531Z" fill="black"/>
<path d="M105.996 127.871L139.59 147.266C141.094 148.125 141.836 149.18 141.836 150.449C141.836 151.699 141.094 152.754 139.59 153.633L113.945 168.437C112.441 169.297 110.625 169.727 108.437 169.727C106.27 169.727 104.434 169.297 102.93 168.437L69.3359 149.043L37.7734 167.266C36.289 168.125 34.4531 168.555 32.2851 168.555C30.1172 168.555 28.3008 168.125 26.7969 167.246L6.23047 155.371C4.7461 154.512 3.98436 153.457 3.98436 152.207C3.98436 150.957 4.7461 149.883 6.23047 149.023L37.7929 130.801L4.19921 111.406C2.71483 110.547 1.97266 109.492 1.95312 108.223C1.95312 106.973 2.6953 105.918 4.19921 105.059L29.8437 90.2539C31.3476 89.3945 33.164 88.9648 35.332 88.9648C37.5195 88.9648 39.3359 89.3945 40.8398 90.2539L74.4336 109.648L105.781 91.5429C107.285 90.6835 109.102 90.2539 111.289 90.2539C113.457 90.2539 115.293 90.6835 116.777 91.5429L137.344 103.418C138.848 104.277 139.59 105.332 139.59 106.602C139.59 107.852 138.848 108.906 137.344 109.766L105.996 127.871Z" fill="#DA3238"/>
<path d="M281.953 50.6218L290.781 45.5241C292.285 44.6647 293.027 43.6101 293.027 42.3601V16.364C293.027 15.114 292.285 14.0593 290.781 13.1804L270.215 1.30543C268.73 0.446052 266.894 0.0163574 264.727 0.0163574C262.559 0.0163574 260.723 0.446052 259.219 1.30543L227.871 19.4109L168.691 53.571L159.648 58.7859C158.164 59.6452 157.422 60.6999 157.422 61.9499H157.383V87.946H157.422V87.9655C157.422 89.2155 158.184 90.2702 159.668 91.1296L180.234 103.005C181.738 103.864 183.555 104.313 185.723 104.313C187.891 104.313 189.727 103.864 191.211 103.024L222.773 84.8015L281.953 50.6218Z" fill="#C32329"/>
<path opacity="0.25" d="M281.953 50.6218L290.781 45.5241C292.285 44.6647 293.027 43.6101 293.027 42.3601V16.364C293.027 15.114 292.285 14.0593 290.781 13.1804L270.215 1.30543C268.73 0.446052 266.894 0.0163574 264.727 0.0163574C262.559 0.0163574 260.723 0.446052 259.219 1.30543L227.871 19.4109L168.691 53.571L159.648 58.7859C158.164 59.6452 157.422 60.6999 157.422 61.9499H157.383V87.946H157.422V87.9655C157.422 89.2155 158.184 90.2702 159.668 91.1296L180.234 103.005C181.738 103.864 183.555 104.313 185.723 104.313C187.891 104.313 189.727 103.864 191.211 103.024L222.773 84.8015L281.953 50.6218Z" fill="black"/>
<path opacity="0.15" d="M186.133 73.1054V104.219C188.105 104.16 189.844 103.809 191.23 103.008L222.793 84.7851L281.973 50.625L290.801 45.5273C292.305 44.6679 293.047 43.6133 293.047 42.3633V16.3672C293.047 15.1172 292.305 14.0625 290.801 13.1836L281.309 7.69531L186.133 73.1054Z" fill="black"/>
<path d="M259.432 37.6367L222.772 58.7891L191.209 77.0117C189.725 77.8711 187.889 78.3008 185.721 78.3008C183.553 78.3008 181.737 77.8712 180.233 76.9923L159.667 65.1172C158.182 64.2578 157.42 63.2032 157.42 61.9532C157.42 60.7032 158.182 59.6289 159.667 58.7696L191.229 40.5469L227.889 19.3945L259.237 1.28907C260.741 0.429695 262.557 0 264.745 0C266.932 0 268.749 0.429695 270.233 1.28907L290.799 13.1641C292.303 14.0234 293.045 15.0781 293.045 16.3477C293.045 17.5977 292.303 18.6523 290.799 19.5117L259.432 37.6367Z" fill="#DA3238"/>
</svg>
