<svg width="887" height="1279" viewBox="0 0 887 1279" fill="none" xmlns="http://www.w3.org/2000/svg">
<path fill-rule="evenodd" clip-rule="evenodd" d="M702.5 990.452C873.623 990.452 1012.39 851.655 1012.39 680.415C1012.39 625.577 998.177 574.06 973.147 529.441C978.34 522.714 983.533 516.072 988.642 509.686C1018.44 559.585 1035.72 617.914 1035.72 680.415C1035.72 864.428 886.479 1013.7 702.5 1013.7C518.436 1013.7 369.278 864.428 369.278 680.415C369.278 496.402 518.436 347.131 702.5 347.131C811.985 347.131 909.125 399.925 969.827 481.586C964.037 486.78 958.333 492.059 952.629 497.509C896.269 420.447 805.174 370.463 702.5 370.463C531.377 370.463 392.605 509.26 392.605 680.415C392.691 851.655 531.462 990.452 702.5 990.452ZM702.5 1131.29C951.352 1131.29 1153.21 929.398 1153.21 680.5C1153.21 583.512 1122.56 493.677 1070.46 420.106C1072.84 417.807 1075.23 415.593 1077.69 413.464C1131.41 488.738 1163 580.958 1163 680.5C1163 934.763 956.716 1141 702.5 1141C448.284 1141 242 934.763 242 680.5C242 426.237 448.284 220 702.5 220C852.85 220 986.343 292.123 1070.37 403.587C1067.73 405.375 1065.01 407.163 1062.28 408.951C980.043 300.042 849.445 229.707 702.5 229.707C453.648 229.707 251.791 431.602 251.791 680.5C251.791 929.398 453.648 1131.29 702.5 1131.29ZM702.5 1106.51C937.73 1106.51 1128.43 915.689 1128.43 680.5C1128.43 590.239 1100.34 506.535 1052.49 437.648C1049.77 440.287 1047.04 443.097 1044.41 445.822C1090.29 512.581 1117.11 593.39 1117.11 680.5C1117.11 909.473 931.43 1095.27 702.5 1095.27C473.57 1095.27 287.888 909.558 287.888 680.5C287.888 451.527 473.57 265.812 702.5 265.812C837.355 265.812 957.141 330.271 1032.83 429.984C1035.81 427.77 1038.87 425.556 1041.94 423.257C964.123 320.734 841.101 254.486 702.5 254.486C467.27 254.486 276.565 445.311 276.565 680.5C276.565 915.689 467.355 1106.51 702.5 1106.51ZM702.5 1075.86C920.788 1075.86 1097.79 898.829 1097.79 680.5C1097.79 599.01 1073.1 523.225 1030.78 460.383C1027.12 464.3 1023.55 468.472 1019.72 472.645C1058.96 532.336 1081.78 603.778 1081.78 680.5C1081.78 889.973 911.934 1059.85 702.5 1059.85C492.981 1059.85 323.134 889.973 323.134 680.5C323.134 470.942 492.981 301.149 702.5 301.149C826.032 301.149 935.687 360.16 1004.99 451.612C1009.07 448.206 1013.25 444.971 1017.42 441.65C945.222 346.62 830.97 285.141 702.5 285.141C484.297 285.141 307.214 462.171 307.214 680.5C307.214 898.829 484.297 1075.86 702.5 1075.86ZM702.5 1044.61C903.591 1044.61 1066.54 881.543 1066.54 680.5C1066.54 608.377 1045.6 541.192 1009.41 484.651C1004.82 489.931 1000.39 495.38 995.793 500.915C1027.89 553.198 1046.45 614.678 1046.45 680.5C1046.45 870.388 892.438 1024.51 702.5 1024.51C512.647 1024.51 358.551 870.388 358.551 680.5C358.551 490.527 512.562 336.573 702.5 336.573C815.135 336.573 915.17 390.814 977.915 474.603C982.938 470.175 988.046 465.748 993.239 461.405C926.748 373.358 821.35 316.477 702.5 316.477C501.494 316.477 338.459 479.457 338.459 680.585C338.459 881.628 501.494 1044.61 702.5 1044.61ZM702.5 981.681C868.856 981.681 1003.63 846.801 1003.63 680.5C1003.63 628.643 990.43 579.851 967.358 537.275C910.487 612.549 851.658 707.238 792.233 819.382L731.702 680.5C694.923 741.128 657.804 809.76 619.322 886.567L503.027 609.228L625.452 725.205C645.374 695.061 672.617 659.467 706.161 621.83L673.639 547.067L725.912 600.287C772.993 549.963 830.63 497.339 896.525 450.335C844.081 406.056 776.398 379.404 702.5 379.404C536.23 379.404 401.374 514.284 401.374 680.585C401.46 846.801 536.23 981.681 702.5 981.681ZM946.244 503.64C933.389 485.928 918.745 469.75 902.399 455.274C854.042 502.618 807.302 562.31 760.222 635.114L797.852 673.432C839.313 618.51 888.692 558.818 946.244 503.64Z" fill="#C32329"/>
<circle cx="639.5" cy="639.5" r="572" stroke="#C32328" stroke-opacity="0.17"/>
<circle cx="639.5" cy="639.5" r="510" stroke="#C32328" stroke-opacity="0.17"/>
<circle cx="639.5" cy="639.5" r="639" stroke="#C32328" stroke-opacity="0.17"/>
</svg>
