<svg width="36" height="36" viewBox="0 0 36 36" fill="none" xmlns="http://www.w3.org/2000/svg">
<path d="M25.5455 14.6705C25.9848 14.2312 25.9848 13.5188 25.5455 13.0795C25.1062 12.6402 24.3938 12.6402 23.9545 13.0795L15.75 21.284L12.0455 17.5795C11.6062 17.1402 10.8938 17.1402 10.4545 17.5795C10.0152 18.0188 10.0152 18.7312 10.4545 19.1705L14.9545 23.6705C15.3938 24.1098 16.1062 24.1098 16.5455 23.6705L25.5455 14.6705Z" fill="#C32328"/>
<path fill-rule="evenodd" clip-rule="evenodd" d="M21.204 1.79982C19.2973 0.400061 16.7027 0.40006 14.796 1.79982L12.733 3.31433C12.3219 3.6161 11.844 3.81405 11.34 3.89132L8.81032 4.27916C6.47231 4.63762 4.63762 6.47231 4.27916 8.81032L3.89132 11.34C3.81405 11.844 3.6161 12.3219 3.31433 12.733L1.79982 14.796C0.400061 16.7027 0.40006 19.2973 1.79982 21.204L3.31433 23.267C3.61609 23.6781 3.81405 24.156 3.89132 24.66L4.27916 27.1897C4.63762 29.5277 6.47231 31.3624 8.81032 31.7208L11.34 32.1087C11.844 32.186 12.3219 32.3839 12.733 32.6857L14.796 34.2002C16.7027 35.5999 19.2973 35.5999 21.204 34.2002L23.267 32.6857C23.6781 32.3839 24.156 32.186 24.66 32.1087L27.1897 31.7208C29.5277 31.3624 31.3624 29.5277 31.7208 27.1897L32.1087 24.66C32.186 24.156 32.3839 23.6781 32.6857 23.267L34.2002 21.204C35.5999 19.2973 35.5999 16.7027 34.2002 14.796L32.6857 12.733C32.3839 12.3219 32.186 11.844 32.1087 11.34L31.7208 8.81032C31.3624 6.47231 29.5277 4.63762 27.1897 4.27916L24.66 3.89132C24.156 3.81405 23.6781 3.6161 23.267 3.31433L21.204 1.79982ZM16.1275 3.61354C17.2418 2.79549 18.7582 2.79549 19.8725 3.61354L21.9355 5.12805C22.6388 5.6444 23.4566 5.98311 24.319 6.11534L26.8487 6.50318C28.2151 6.71267 29.2873 7.78491 29.4968 9.1513L29.8847 11.681C30.0169 12.5434 30.3556 13.3612 30.872 14.0645L32.3865 16.1275C33.2045 17.2418 33.2045 18.7582 32.3865 19.8725L30.872 21.9355C30.3556 22.6388 30.0169 23.4566 29.8847 24.319L29.4968 26.8487C29.2873 28.2151 28.2151 29.2873 26.8487 29.4968L24.319 29.8847C23.4566 30.0169 22.6388 30.3556 21.9355 30.872L19.8725 32.3865C18.7582 33.2045 17.2418 33.2045 16.1275 32.3865L14.0645 30.872C13.3612 30.3556 12.5434 30.0169 11.681 29.8847L9.1513 29.4968C7.78491 29.2873 6.71267 28.2151 6.50318 26.8487L6.11534 24.319C5.98311 23.4566 5.6444 22.6388 5.12805 21.9355L3.61354 19.8725C2.79549 18.7582 2.79549 17.2418 3.61354 16.1275L5.12805 14.0645C5.6444 13.3612 5.98311 12.5434 6.11534 11.681L6.50318 9.1513C6.71267 7.78491 7.78491 6.71267 9.1513 6.50318L11.681 6.11534C12.5434 5.98311 13.3612 5.6444 14.0645 5.12805L16.1275 3.61354Z" fill="#C32328"/>
</svg>
