<svg width="6" height="14" viewBox="0 0 6 14" fill="none" xmlns="http://www.w3.org/2000/svg">
<path d="M4.6456 2.24451C4.27539 2.24451 3.95937 2.13519 3.69752 1.91654C3.43567 1.6979 3.30474 1.43485 3.30474 1.12738C3.30474 0.81308 3.43567 0.546608 3.69752 0.327965C3.95937 0.109322 4.27539 0 4.6456 0C5.0158 0 5.33183 0.109322 5.59368 0.327965C5.86456 0.546608 6 0.81308 6 1.12738C6 1.44168 5.86456 1.70815 5.59368 1.92679C5.33183 2.1386 5.0158 2.24451 4.6456 2.24451ZM4.97065 4.48902C5.02483 4.50952 5.0474 4.53685 5.03837 4.57101L2.30248 11.8887C2.17607 12.2782 2.11287 12.5105 2.11287 12.5857C2.11287 12.6881 2.13995 12.777 2.19413 12.8521C2.23928 12.9341 2.35214 12.9751 2.53273 12.9751C2.83973 12.9751 3.24605 12.7735 3.75169 12.3704C4.04966 12.1313 4.41535 11.7897 4.84876 11.3455L5.2009 11.571L5.06546 11.7145C4.38826 12.4319 3.82844 12.9478 3.386 13.2621C2.69074 13.754 2.01354 14 1.3544 14C0.96614 14 0.641084 13.877 0.379233 13.631C0.126411 13.3851 0 13.0947 0 12.7599C0 12.5617 0.0180587 12.3909 0.0541761 12.2474C0.0902935 12.0971 0.158014 11.8785 0.257336 11.5915L2.1535 6.32357C2.18059 6.24158 2.20316 6.16642 2.22122 6.0981C2.23928 6.02977 2.24831 5.96144 2.24831 5.89312C2.24831 5.64714 2.12641 5.49683 1.88262 5.44217C1.64786 5.38067 1.17833 5.34993 0.474041 5.34993V5.01171C1.22348 4.94339 1.76072 4.89214 2.08578 4.85798C2.41986 4.81698 2.75395 4.77599 3.08804 4.73499C3.52144 4.68033 3.93228 4.61884 4.32054 4.55051C4.7088 4.48219 4.92551 4.46169 4.97065 4.48902Z" fill="#C32329"/>
</svg>
