<svg width="105" height="38" viewBox="0 0 105 38" fill="none" xmlns="http://www.w3.org/2000/svg">
<path fill-rule="evenodd" clip-rule="evenodd" d="M25.5517 17.6235H30.5817L30.5981 6.1651C30.5981 5.91303 30.5708 5.634 30.6906 5.40731C30.8502 5.0846 31.1838 4.8595 31.5553 4.8595H31.6118H48.2942V0.0125233H30.6652H30.5438H30.4096C27.9288 0.0125233 25.8725 1.88035 25.5787 4.29566L25.5389 4.67103V4.89964V5.1135L25.5517 17.6235ZM0.020143 12.791H16.7045L16.9019 12.7656C17.3589 12.6985 17.7178 12.2962 17.7178 11.7991V9.43999H5.1192H4.87966C2.39724 9.43999 0.342847 7.56862 0.0345919 5.16584C-0.00522438 4.89932 -0.00522426 4.6036 0.0076197 4.33901V0.0487998H5.05209V3.24374L5.06493 3.6464C5.06493 4.19227 5.54562 4.63088 6.08057 4.60359H17.7018L17.6909 0.0231162H22.7498V12.5222C22.7607 12.7505 22.7498 13.1223 22.7228 13.3471C22.4162 15.7534 20.3602 17.6229 17.8774 17.6229H17.6363H0.020143V12.791ZM82.192 0.0125233H87.0897V6.52794H89.9202L96.845 0.0125233H104.093L94.1086 8.77081L104.039 17.6524H96.7907L89.9202 11.1498H87.0897V17.6524H82.192V0.0125233ZM50.3755 0.0125233H59.6781L64.9367 11.6668L70.1951 0C73.3306 0 76.4276 0.0125233 79.5647 0.0125233V17.638H74.6779V4.91216H73.2889L67.5932 17.638H62.2803L56.5956 4.91216H55.2611V17.638H50.3759C50.3759 11.7628 50.3614 5.90244 50.3614 0.0234396H50.3759V0.0125233H50.3755Z" fill="black"/>
<path fill-rule="evenodd" clip-rule="evenodd" d="M0.0114746 20.8405H4.57558V31.5626C4.55021 32.1101 4.84209 32.645 5.52571 32.6723H15.693C16.199 32.6996 16.6415 32.2716 16.6415 31.764L16.654 20.8276H21.1928V32.4312V32.8445V32.8608L21.1658 33.2073C20.8845 35.4357 18.9624 37.1857 16.654 37.1857H4.55021C2.22738 37.1857 0.319732 35.436 0.0387702 33.2073L0.011798 32.8608V32.8445V32.4312V20.8405H0.0114746ZM32.3352 20.8276L37.2204 31.6423L42.1037 20.8405H50.8729V37.1854H46.3217V25.368H45.0142L39.7029 37.1854H34.7383L29.4251 25.368H28.185V37.1854H23.6334C23.6334 31.7238 23.6209 26.2748 23.6209 20.8276H32.3352ZM61.9377 20.8276L66.8357 31.6423L71.7187 20.8405H80.4738V37.1854H75.9241V25.368H74.6131L69.3037 37.1854H64.3514L59.042 25.368H57.8V37.1854H53.234V20.8276H61.9377ZM87.4818 28.9476V31.4718V31.7636C87.4943 32.2713 87.9332 32.6849 88.43 32.6592H98.5992C99.1178 32.672 99.5599 32.2713 99.5599 31.7511V31.1889H104.083V32.4184C104.11 32.8335 104.07 33.2179 103.977 33.635C103.562 35.4479 102.054 36.8791 100.187 37.1456C99.9044 37.1854 99.6145 37.1998 99.3188 37.1998H87.6683C87.2531 37.1998 86.8543 37.1709 86.4391 37.0785C84.5986 36.6633 83.1713 35.104 82.9302 33.1925C82.8865 32.9405 82.8865 32.672 82.9029 32.4184V28.9473V25.6489C82.8865 25.3953 82.8865 25.1288 82.9302 24.8732C83.1842 22.8859 84.7052 21.2952 86.653 20.949C86.9866 20.8819 87.3331 20.8691 87.6683 20.8691H99.3188C99.5599 20.8691 99.7975 20.8691 100.039 20.8944C102.026 21.1102 103.642 22.6297 104.017 24.5806C104.083 24.94 104.097 25.2607 104.083 25.6486V26.7821H99.5599V26.3159C99.5599 26.1165 99.4931 25.9155 99.3714 25.7684C99.1974 25.542 98.8927 25.395 98.5992 25.4078H88.43H88.2559C87.8279 25.4749 87.5071 25.8336 87.4818 26.2744V26.5281V28.9476Z" fill="#F39420"/>
</svg>
