<svg width="14" height="17" viewBox="0 0 14 17" fill="none" xmlns="http://www.w3.org/2000/svg">
<path fill-rule="evenodd" clip-rule="evenodd" d="M11.9497 11.9497C11.9253 11.9741 11.9008 11.9983 11.8762 12.0223L8.41421 15.4842C7.63316 16.2653 6.36684 16.2653 5.58579 15.4842L2.12385 12.0223C2.09918 11.9983 2.07465 11.9741 2.05025 11.9497C-0.683417 9.21608 -0.683417 4.78392 2.05025 2.05025C4.78392 -0.683417 9.21608 -0.683417 11.9497 2.05025C14.6834 4.78392 14.6834 9.21608 11.9497 11.9497ZM7 11.9989C9.76142 11.9989 12 9.76037 12 6.99894C12 4.23752 9.76142 1.99894 7 1.99894C4.23858 1.99894 2 4.23752 2 6.99894C2 9.76037 4.23858 11.9989 7 11.9989Z" fill="#C32329"/>
</svg>
