<svg width="22" height="22" viewBox="0 0 22 22" fill="none" xmlns="http://www.w3.org/2000/svg">
<path d="M3.09871 7.33333C4.48322 4.35501 7.5014 2.29167 11 2.29167C15.0759 2.29167 18.4993 5.09251 19.4475 8.87547C19.5398 9.24378 19.9132 9.46752 20.2815 9.37521C20.6498 9.2829 20.8735 8.90949 20.7812 8.54119C19.6834 4.16111 15.7214 0.916666 11 0.916666C7.28523 0.916666 4.04088 2.92524 2.29163 5.91395V4.35417C2.29163 3.97447 1.98382 3.66667 1.60413 3.66667C1.22443 3.66667 0.916626 3.97447 0.916626 4.35417V7.79167C0.916626 8.29793 1.32703 8.70833 1.83329 8.70833H5.27079C5.65049 8.70833 5.95829 8.40053 5.95829 8.02083C5.95829 7.64114 5.65049 7.33333 5.27079 7.33333H3.09871Z" fill="#C32329"/>
<path d="M2.55247 13.1245C2.46016 12.7562 2.08676 12.5325 1.71846 12.6248C1.35015 12.7171 1.12642 13.0905 1.21873 13.4588C2.31653 17.8389 6.27851 21.0833 11 21.0833C14.7147 21.0833 17.959 19.0748 19.7083 16.0861V17.6458C19.7083 18.0255 20.0161 18.3333 20.3958 18.3333C20.7755 18.3333 21.0833 18.0255 21.0833 17.6458V14.2083C21.0833 13.7021 20.6729 13.2917 20.1666 13.2917H16.7291C16.3494 13.2917 16.0416 13.5995 16.0416 13.9792C16.0416 14.3589 16.3494 14.6667 16.7291 14.6667H18.9012C17.5167 17.645 14.4986 19.7083 11 19.7083C6.92407 19.7083 3.50062 16.9075 2.55247 13.1245Z" fill="#C32329"/>
</svg>
